<svg width="140" height="20" viewBox="0 0 140 20" fill="none" xmlns="http://www.w3.org/2000/svg">
<path d="M45.1391 7.43623C44.5273 8.27311 43.5037 9.72801 42.8807 10.5778C42.5645 11.0099 41.9933 11.7945 43.8868 11.7945C45.8902 11.7945 53.8562 11.7945 53.8562 11.7945C53.8562 11.7945 55.4629 9.58638 56.81 7.7396C58.6421 5.22733 56.9685 0 50.4181 0C44.5552 0 24.6212 0 24.6212 0L20.1483 6.13905C20.1483 6.13905 43.3364 6.13905 44.5265 6.13905C45.7572 6.13905 45.7405 6.61221 45.1391 7.43623ZM37.8152 13.3089C35.9217 13.3089 36.4928 12.5227 36.8091 12.0906C37.432 11.2408 38.4724 9.80124 39.0841 8.96435C39.6864 8.14034 39.7023 7.66718 38.47 7.66718C37.2807 7.66718 27.3208 7.66718 27.3208 7.66718L18.3376 20C18.3376 20 34.3818 20 40.2448 20C47.4803 20 51.5086 15.0286 52.7505 13.3097C52.7505 13.3089 39.8178 13.3089 37.8152 13.3089ZM52.0663 20H64.9177L69.7897 13.3081L56.9398 13.3097C56.9358 13.3089 52.0663 20 52.0663 20ZM85.2245 0L80.2952 6.7635H74.5597L79.4866 0H66.6392L58.0439 11.7945H89.4775L98.0704 0H85.2245ZM70.6532 20H83.4999L88.3743 13.3097H75.5276C75.5228 13.3089 70.6532 20 70.6532 20ZM0 15.9483V17.3694H17.8979L18.9319 15.9483H0ZM20.8557 13.3089H0V14.7284H19.8193L20.8557 13.3089ZM0 20H15.9805L17.0097 18.5869H0V20ZM121.14 17.3686H140V15.9475H122.175L121.14 17.3686ZM119.224 20H140V18.5869H120.252L119.224 20ZM124.096 13.3089L123.063 14.73H140V13.3089H124.096ZM107.269 11.7945L115.863 0H102.257C102.252 0 93.6557 11.7945 93.6557 11.7945H107.269ZM92.554 13.3089C92.554 13.3089 91.6148 14.6053 91.1584 15.2297C89.5452 17.4314 90.972 20 96.2374 20C102.32 20 116.87 20 116.87 20L121.744 13.3097H92.554V13.3089Z" fill="black"/>
</svg>
