<svg width="1853" height="198" viewBox="0 0 1853 198" fill="none" xmlns="http://www.w3.org/2000/svg">
<path d="M82.4 197.224C59.696 197.224 41.04 191.416 26.432 179.8C11.824 168.184 3.024 150.76 0.0320007 127.528H25.376C28.192 143.544 34.352 155.776 43.856 164.224C53.536 172.672 66.032 176.896 81.344 176.896C91.024 176.896 99.648 175.224 107.216 171.88C114.96 168.36 121.472 163.52 126.752 157.36C132.208 151.2 136.432 143.808 139.424 135.184C142.592 126.56 144.44 117.056 144.968 106.672H57.056V85.816H143.912C142.856 77.368 140.832 69.272 137.84 61.528C134.848 53.608 130.8 46.656 125.696 40.672C120.768 34.512 114.608 29.672 107.216 26.152C100 22.456 91.552 20.608 81.872 20.608C75.008 20.608 68.496 21.488 62.336 23.248C56.352 25.008 50.984 27.56 46.232 30.904C41.48 34.248 37.432 38.296 34.088 43.048C30.744 47.8 28.28 53.08 26.696 58.888H1.88C3.112 49.208 6.192 40.672 11.12 33.28C16.224 25.888 22.472 19.728 29.864 14.8C37.256 9.872 45.352 6.176 54.152 3.712C63.128 1.248 72.192 0.0159984 81.344 0.0159984C96.128 0.0159984 109.064 2.656 120.152 7.93599C131.24 13.216 140.392 20.344 147.608 29.32C155 38.296 160.456 48.856 163.976 61C167.672 72.968 169.52 85.64 169.52 99.016C169.52 114.504 167.32 128.32 162.92 140.464C158.52 152.608 152.448 162.904 144.704 171.352C136.96 179.8 127.72 186.224 116.984 190.624C106.424 195.024 94.896 197.224 82.4 197.224ZM188.996 4.50399H271.628C290.812 4.50399 305.244 9.43199 314.924 19.288C324.604 28.968 329.444 42.608 329.444 60.208C329.444 77.808 324.604 91.536 314.924 101.392C305.244 111.072 290.812 115.912 271.628 115.912H214.076V193H188.996V4.50399ZM263.18 94.792C277.436 94.792 287.82 91.888 294.332 86.08C301.02 80.096 304.364 71.472 304.364 60.208C304.364 48.944 301.02 40.408 294.332 34.6C287.82 28.616 277.436 25.624 263.18 25.624H214.076V94.792H263.18ZM349.096 4.50399H374.176V164.224L468.952 4.50399H500.632V193H475.552V32.752L380.512 193H349.096V4.50399ZM530.851 4.50399H555.931V95.848L651.499 4.50399H683.971L594.211 88.456L687.139 193H655.459L575.203 103.768L555.931 121.72V193H530.851V4.50399ZM758.766 4.50399H793.086L852.486 162.904L912.15 4.50399H946.47V193H922.71V36.184H922.182L863.31 193H841.926L783.054 36.184H782.526V193H758.766V4.50399ZM1004.57 195.904C1001.58 195.904 998.591 195.552 995.599 194.848C992.783 194.32 990.407 193.616 988.471 192.736V170.296C990.759 171.352 993.047 172.232 995.335 172.936C997.799 173.464 1000.53 173.728 1003.52 173.728C1008.27 173.728 1012.76 172.056 1016.98 168.712C1021.21 165.368 1024.9 160.352 1028.07 153.664L1031.24 147.064L956.791 4.50399H983.983L1044.44 122.512L1091.43 4.50399H1118.09L1054.73 150.232C1051.04 159.032 1047.25 166.336 1043.38 172.144C1039.51 177.952 1035.55 182.616 1031.5 186.136C1027.45 189.656 1023.14 192.12 1018.57 193.528C1014.17 195.112 1009.5 195.904 1004.57 195.904ZM1205.3 197.224C1190.69 197.224 1177.93 194.76 1167.02 189.832C1156.11 184.728 1147.05 177.776 1139.83 168.976C1132.61 160.176 1127.16 149.792 1123.46 137.824C1119.94 125.856 1118.18 113.008 1118.18 99.28C1118.18 85.552 1120.12 72.704 1123.99 60.736C1127.86 48.592 1133.49 38.032 1140.89 29.056C1148.45 20.08 1157.78 13.04 1168.87 7.93599C1179.96 2.656 1192.81 0.0159984 1207.41 0.0159984C1217.27 0.0159984 1226.6 1.336 1235.4 3.97599C1244.2 6.61599 1252.03 10.488 1258.89 15.592C1265.76 20.696 1271.48 27.12 1276.05 34.864C1280.63 42.432 1283.62 51.232 1285.03 61.264H1259.95C1257.13 47.888 1250.89 37.856 1241.21 31.168C1231.7 24.48 1220.35 21.136 1207.15 21.136C1195.89 21.136 1186.21 23.248 1178.11 27.472C1170.19 31.696 1163.59 37.416 1158.31 44.632C1153.21 51.672 1149.42 59.768 1146.96 68.92C1144.49 78.072 1143.26 87.576 1143.26 97.432C1143.26 108.168 1144.49 118.376 1146.96 128.056C1149.42 137.56 1153.21 145.92 1158.31 153.136C1163.59 160.176 1170.28 165.808 1178.37 170.032C1186.47 174.256 1196.15 176.368 1207.41 176.368C1215.51 176.368 1222.81 175.048 1229.33 172.408C1235.84 169.592 1241.38 165.808 1245.96 161.056C1250.71 156.128 1254.41 150.32 1257.05 143.632C1259.69 136.944 1261.27 129.728 1261.8 121.984H1286.88C1284.41 145.92 1276.23 164.488 1262.33 177.688C1248.6 190.712 1229.59 197.224 1205.3 197.224ZM1306.86 4.50399H1331.94V164.224L1426.71 4.50399H1458.39V193H1433.31V32.752L1338.27 193H1306.86V4.50399ZM1488.61 4.50399H1513.69V85.552H1612.96V4.50399H1638.04V193H1612.96V106.672H1513.69V193H1488.61V4.50399ZM1805.59 117.76H1788.7C1787.46 125.68 1784.03 132.192 1778.4 137.296C1772.77 142.224 1765.46 144.688 1756.49 144.688C1750.15 144.688 1744.43 143.456 1739.33 140.992C1734.4 138.352 1730.18 134.92 1726.66 130.696C1723.14 126.472 1720.41 121.544 1718.47 115.912C1716.71 110.28 1715.83 104.384 1715.83 98.224C1715.83 91.888 1716.71 85.992 1718.47 80.536C1720.23 75.08 1722.78 70.328 1726.13 66.28C1729.47 62.056 1733.61 58.8 1738.54 56.512C1743.64 54.224 1749.45 53.08 1755.96 53.08C1764.94 53.08 1772.24 55.544 1777.87 60.472C1783.68 65.224 1787.29 71.296 1788.7 78.688H1805.33C1803.22 65.488 1797.58 55.544 1788.43 48.856C1779.28 41.992 1768.37 38.56 1755.7 38.56C1746.72 38.56 1738.62 40.056 1731.41 43.048C1724.19 46.04 1718.12 50.176 1713.19 55.456C1708.26 60.736 1704.48 67.072 1701.84 74.464C1699.2 81.856 1697.88 89.952 1697.88 98.752C1697.88 107.376 1699.2 115.384 1701.84 122.776C1704.66 130.168 1708.62 136.592 1713.72 142.048C1718.82 147.328 1724.98 151.552 1732.2 154.72C1739.42 157.712 1747.51 159.208 1756.49 159.208C1768.63 159.208 1779.1 155.512 1787.9 148.12C1796.88 140.728 1802.78 130.608 1805.59 117.76ZM1671.74 98.224C1671.74 86.432 1673.77 75.432 1677.82 65.224C1682.04 55.016 1687.76 46.216 1694.98 38.824C1702.37 31.256 1710.99 25.36 1720.85 21.136C1730.88 16.736 1741.7 14.536 1753.32 14.536C1764.76 14.536 1775.41 16.736 1785.26 21.136C1795.12 25.36 1803.66 31.256 1810.87 38.824C1818.26 46.216 1823.98 55.016 1828.03 65.224C1832.26 75.432 1834.37 86.432 1834.37 98.224C1834.37 110.368 1832.26 121.632 1828.03 132.016C1823.98 142.224 1818.26 151.112 1810.87 158.68C1803.66 166.248 1795.12 172.232 1785.26 176.632C1775.41 180.856 1764.76 182.968 1753.32 182.968C1741.7 182.968 1730.88 180.856 1720.85 176.632C1710.99 172.232 1702.37 166.248 1694.98 158.68C1687.76 151.112 1682.04 142.224 1677.82 132.016C1673.77 121.632 1671.74 110.368 1671.74 98.224ZM1653.79 98.224C1653.79 112.48 1656.43 125.68 1661.71 137.824C1666.99 149.792 1674.12 160.264 1683.1 169.24C1692.25 178.04 1702.81 184.904 1714.78 189.832C1726.92 194.76 1739.77 197.224 1753.32 197.224C1766.87 197.224 1779.63 194.76 1791.6 189.832C1803.57 184.904 1814.04 178.04 1823.02 169.24C1831.99 160.264 1839.12 149.792 1844.4 137.824C1849.68 125.68 1852.32 112.48 1852.32 98.224C1852.32 84.32 1849.68 71.384 1844.4 59.416C1839.12 47.448 1831.99 37.064 1823.02 28.264C1814.04 19.464 1803.57 12.6 1791.6 7.67199C1779.63 2.568 1766.87 0.0159984 1753.32 0.0159984C1739.77 0.0159984 1726.92 2.568 1714.78 7.67199C1702.81 12.6 1692.25 19.464 1683.1 28.264C1674.12 37.064 1666.99 47.448 1661.71 59.416C1656.43 71.384 1653.79 84.32 1653.79 98.224Z" fill="black"/>
</svg>
