<svg width="1825" height="228" viewBox="0 0 1825 228" fill="none" xmlns="http://www.w3.org/2000/svg">
<path d="M0.712 5.94399V223H151.496V198.68H29.592V123.592H142.376V99.272H29.592V30.264H150.584V5.94399H0.712ZM173.788 5.94399V223H202.668V130.28H273.196C280.289 130.28 285.964 131.395 290.22 133.624C294.476 135.651 297.921 138.488 300.556 142.136C303.19 145.581 305.116 149.736 306.332 154.6C307.548 159.261 308.561 164.227 309.372 169.496C310.385 174.765 310.993 180.136 311.196 185.608C311.398 191.08 311.601 196.248 311.804 201.112C312.006 205.773 312.412 210.029 313.02 213.88C313.83 217.731 315.249 220.771 317.276 223H349.5C346.46 219.352 344.129 215.197 342.508 210.536C341.089 205.672 339.974 200.605 339.164 195.336C338.353 190.067 337.846 184.696 337.644 179.224C337.441 173.752 337.137 168.381 336.732 163.112C336.124 157.843 335.212 152.776 333.996 147.912C332.982 143.048 331.26 138.691 328.828 134.84C326.598 130.787 323.457 127.341 319.404 124.504C315.553 121.667 310.486 119.64 304.204 118.424V117.816C317.377 114.168 326.902 107.379 332.78 97.448C338.86 87.5173 341.9 75.9653 341.9 62.792C341.9 45.16 336.022 31.2773 324.268 21.144C312.716 11.0107 296.604 5.94399 275.932 5.94399H173.788ZM262.86 105.96H202.668V30.264H274.412C287.99 30.264 297.82 33.7093 303.9 40.6C309.98 47.4907 313.02 56.408 313.02 67.352C313.02 75.256 311.601 81.7413 308.764 86.808C306.129 91.672 302.481 95.624 297.82 98.664C293.361 101.501 288.092 103.427 282.012 104.44C275.932 105.453 269.548 105.96 262.86 105.96ZM370.345 5.94399V223H399.225V5.94399H370.345ZM435.033 5.94399V223H463.913V147L500.089 113.256L578.521 223H615.001L519.849 93.496L611.353 5.94399H573.961L463.913 114.168V5.94399H435.033ZM697.48 5.94399V223H724.84V42.424H725.448L793.24 223H817.864L885.656 42.424H886.264V223H913.624V5.94399H874.104L805.4 188.344L737 5.94399H697.48ZM1122.2 144.568V5.94399H1093.32V144.568C1093.32 164.024 1088.45 178.819 1078.72 188.952C1069.2 198.883 1055.22 203.848 1036.77 203.848C1017.32 203.848 1002.42 198.883 992.085 188.952C981.749 178.819 976.581 164.024 976.581 144.568V5.94399H947.701V144.568C947.701 173.549 955.503 194.728 971.109 208.104C986.917 221.277 1008.8 227.864 1036.77 227.864C1064.13 227.864 1085.21 220.973 1100 207.192C1114.8 193.208 1122.2 172.333 1122.2 144.568ZM1281.09 69.48H1308.45C1308.05 57.5227 1305.72 47.288 1301.46 38.776C1297.41 30.0613 1291.73 22.8667 1284.44 17.192C1277.34 11.5173 1269.03 7.36265 1259.51 4.72798C1249.98 2.09333 1239.65 0.775998 1228.5 0.775998C1218.57 0.775998 1208.84 2.09333 1199.32 4.72798C1189.99 7.15999 1181.58 11.0107 1174.08 16.28C1166.79 21.3467 1160.91 27.9333 1156.45 36.04C1151.99 43.944 1149.76 53.368 1149.76 64.312C1149.76 74.2427 1151.69 82.552 1155.54 89.24C1159.59 95.7253 1164.86 101.096 1171.35 105.352C1178.04 109.405 1185.53 112.749 1193.84 115.384C1202.15 117.816 1210.56 120.045 1219.08 122.072C1227.79 123.896 1236.3 125.72 1244.61 127.544C1252.92 129.368 1260.32 131.8 1266.8 134.84C1273.49 137.677 1278.76 141.427 1282.61 146.088C1286.66 150.749 1288.69 156.829 1288.69 164.328C1288.69 172.232 1287.07 178.717 1283.83 183.784C1280.58 188.851 1276.33 192.904 1271.06 195.944C1265.79 198.781 1259.81 200.808 1253.12 202.024C1246.64 203.24 1240.15 203.848 1233.67 203.848C1225.56 203.848 1217.66 202.835 1209.96 200.808C1202.25 198.781 1195.46 195.64 1189.59 191.384C1183.91 187.128 1179.25 181.757 1175.6 175.272C1172.16 168.584 1170.44 160.68 1170.44 151.56H1143.08C1143.08 164.733 1145.41 176.184 1150.07 185.912C1154.93 195.437 1161.42 203.341 1169.52 209.624C1177.83 215.704 1187.36 220.264 1198.1 223.304C1209.04 226.344 1220.6 227.864 1232.76 227.864C1242.69 227.864 1252.62 226.648 1262.55 224.216C1272.68 221.987 1281.8 218.339 1289.91 213.272C1298.01 208.003 1304.6 201.315 1309.67 193.208C1314.94 184.899 1317.57 174.968 1317.57 163.416C1317.57 152.675 1315.54 143.757 1311.49 136.664C1307.64 129.571 1302.37 123.693 1295.68 119.032C1289.2 114.371 1281.8 110.723 1273.49 108.088C1265.18 105.251 1256.67 102.819 1247.96 100.792C1239.44 98.7653 1231.03 96.9413 1222.72 95.32C1214.41 93.496 1206.92 91.2667 1200.23 88.632C1193.74 85.9973 1188.47 82.6533 1184.42 78.6C1180.57 74.344 1178.64 68.872 1178.64 62.184C1178.64 55.0907 1179.96 49.2133 1182.6 44.552C1185.43 39.688 1189.08 35.8373 1193.54 33C1198.2 30.1627 1203.47 28.136 1209.35 26.92C1215.22 25.704 1221.2 25.096 1227.28 25.096C1242.28 25.096 1254.54 28.6427 1264.07 35.736C1273.8 42.6267 1279.47 53.8747 1281.09 69.48ZM1341.11 5.94399V223H1369.99V5.94399H1341.11ZM1405.5 5.94399V223H1432.86V48.808H1433.46L1546.86 223H1578.47V5.94399H1551.11V181.96H1550.5L1436.2 5.94399H1405.5ZM1770.81 136.36H1751.35C1749.93 145.48 1745.98 152.979 1739.49 158.856C1733.01 164.531 1724.6 167.368 1714.26 167.368C1706.97 167.368 1700.38 165.949 1694.5 163.112C1688.83 160.072 1683.96 156.12 1679.91 151.256C1675.86 146.392 1672.72 140.717 1670.49 134.232C1668.46 127.747 1667.45 120.957 1667.45 113.864C1667.45 106.568 1668.46 99.7787 1670.49 93.496C1672.51 87.2133 1675.45 81.7413 1679.3 77.08C1683.15 72.216 1687.92 68.4667 1693.59 65.832C1699.47 63.1973 1706.16 61.88 1713.65 61.88C1723.99 61.88 1732.4 64.7173 1738.89 70.392C1745.57 75.864 1749.73 82.856 1751.35 91.368H1770.5C1768.07 76.168 1761.59 64.7173 1751.05 57.016C1740.51 49.112 1727.94 45.16 1713.35 45.16C1703.01 45.16 1693.69 46.8827 1685.38 50.328C1677.07 53.7733 1670.08 58.536 1664.41 64.616C1658.73 70.696 1654.37 77.992 1651.33 86.504C1648.29 95.016 1646.77 104.339 1646.77 114.472C1646.77 124.403 1648.29 133.624 1651.33 142.136C1654.58 150.648 1659.14 158.045 1665.01 164.328C1670.89 170.408 1677.99 175.272 1686.29 178.92C1694.6 182.365 1703.93 184.088 1714.26 184.088C1728.25 184.088 1740.31 179.832 1750.44 171.32C1760.77 162.808 1767.56 151.155 1770.81 136.36ZM1616.68 113.864C1616.68 100.285 1619.01 87.6187 1623.67 75.864C1628.53 64.1093 1635.12 53.976 1643.43 45.464C1651.94 36.7493 1661.87 29.96 1673.22 25.096C1684.77 20.0293 1697.24 17.496 1710.61 17.496C1723.79 17.496 1736.05 20.0293 1747.4 25.096C1758.75 29.96 1768.58 36.7493 1776.89 45.464C1785.4 53.976 1791.99 64.1093 1796.65 75.864C1801.51 87.6187 1803.94 100.285 1803.94 113.864C1803.94 127.848 1801.51 140.819 1796.65 152.776C1791.99 164.531 1785.4 174.765 1776.89 183.48C1768.58 192.195 1758.75 199.085 1747.4 204.152C1736.05 209.016 1723.79 211.448 1710.61 211.448C1697.24 211.448 1684.77 209.016 1673.22 204.152C1661.87 199.085 1651.94 192.195 1643.43 183.48C1635.12 174.765 1628.53 164.531 1623.67 152.776C1619.01 140.819 1616.68 127.848 1616.68 113.864ZM1596.01 113.864C1596.01 130.28 1599.05 145.48 1605.13 159.464C1611.21 173.245 1619.41 185.304 1629.75 195.64C1640.29 205.773 1652.45 213.677 1666.23 219.352C1680.21 225.027 1695.01 227.864 1710.61 227.864C1726.22 227.864 1740.91 225.027 1754.69 219.352C1768.48 213.677 1780.53 205.773 1790.87 195.64C1801.21 185.304 1809.41 173.245 1815.49 159.464C1821.57 145.48 1824.61 130.28 1824.61 113.864C1824.61 97.8533 1821.57 82.9573 1815.49 69.176C1809.41 55.3947 1801.21 43.4373 1790.87 33.304C1780.53 23.1707 1768.48 15.2667 1754.69 9.59199C1740.91 3.71466 1726.22 0.775998 1710.61 0.775998C1695.01 0.775998 1680.21 3.71466 1666.23 9.59199C1652.45 15.2667 1640.29 23.1707 1629.75 33.304C1619.41 43.4373 1611.21 55.3947 1605.13 69.176C1599.05 82.9573 1596.01 97.8533 1596.01 113.864Z" fill="black"/>
</svg>
